<svg height="512" viewBox="0 0 128 128" width="512" xmlns="http://www.w3.org/2000/svg"><g><path d="m40.172 97.482a13.637 13.637 0 0 1 -11.692-20.658l23.827-39.688a13.639 13.639 0 0 1 23.386 0l23.828 39.688a13.638 13.638 0 0 1 -11.693 20.658z" fill="#fd445f"/><path d="m40.172 90.4a6.556 6.556 0 0 1 -5.62-9.93l23.827-39.688a6.555 6.555 0 0 1 11.241 0l23.828 39.688a6.556 6.556 0 0 1 -5.62 9.93z" fill="#ece6f2"/><g fill="#293e65"><rect height="19.729" rx="3" width="6" x="61" y="51.021"/><circle cx="64" cy="79.658" r="3"/></g></g></svg>